<?xml version="1.0" encoding="utf-8"?>
<!-- Generator: Adobe Illustrator 27.5.0, SVG Export Plug-In . SVG Version: 6.00 Build 0)  -->
<svg version="1.1" id="Layer_1" xmlns="http://www.w3.org/2000/svg" xmlns:xlink="http://www.w3.org/1999/xlink" x="0px" y="0px"
	 viewBox="0 0 792 612" style="enable-background:new 0 0 792 612;" xml:space="preserve">
<style type="text/css">
	.st0{fill:#881719;}
	.st1{fill-rule:evenodd;clip-rule:evenodd;fill:#CCCCCC;}
	.st2{fill:#565656;}
	.st3{font-family:'Futura-CondensedMedium';}
	.st4{font-size:22.4394px;}
	.st5{fill:#333333;}
	.st6{font-size:33.6591px;}
	.st7{fill-rule:evenodd;clip-rule:evenodd;fill:#565656;}
	.st8{fill:#8D433E;}
	.st9{fill:#DC463A;}
	.st10{fill:#424143;}
	.st11{fill:#D69174;}
	.st12{opacity:0.6;fill-rule:evenodd;clip-rule:evenodd;fill:#CCCCCC;stroke:#010101;stroke-width:5;stroke-miterlimit:10;}
	.st13{fill:#F8ED33;}
	.st14{fill-rule:evenodd;clip-rule:evenodd;fill:#881719;}
	.st15{opacity:0.6;}
	.st16{fill:#FFFFFF;}
	.st17{font-family:'Futura-CondensedExtraBold';}
	.st18{font-size:18.5408px;}
	.st19{fill-rule:evenodd;clip-rule:evenodd;fill:#010101;}
	.st20{fill:#2A3C90;}
	.st21{fill:#2075BC;}
	.st22{fill:#8FC640;}
	.st23{fill:#8B5F3D;}
	.st24{fill-rule:evenodd;clip-rule:evenodd;fill:#00B1B2;}
	.st25{opacity:0.8;}
	.st26{fill-rule:evenodd;clip-rule:evenodd;fill:#FFFFFF;}
	.st27{fill:#058586;}
	.st28{fill:#010101;}
	.st29{fill-rule:evenodd;clip-rule:evenodd;fill:#058586;}
</style>
<path class="st0" d="M699,225.7c-77.5-58.3-177.7-90.9-283-90.9c-101.1,0-198,30.3-274.2,84.6l14.7,22.1
	c71.9-51.4,163.6-80.1,259.5-80.1c99,0,193.1,30.4,265.9,84.8C685.2,237.6,691.3,230.5,699,225.7z"/>
<g>
	<path class="st1" d="M222,318.1l43,43l-43,42.7h-36.6l30.2-29.7h-66.8v-26.2h66.8l-30.2-29.7H222z"/>
	<g>
		<text transform="matrix(1 0 0 1 182.7769 369.7236)" class="st2 st3 st4">BEATS</text>
	</g>
</g>
<text transform="matrix(1 0 0 1 51.6079 455.8428)" class="st5 st3 st6">Adversary</text>
<g>
	<text transform="matrix(1 0 0 1 253.0171 455.8438)" class="st5 st3 st6">KataGo Victim</text>
</g>
<g>
	<text transform="matrix(1 0 0 1 489.3594 455.8438)"><tspan x="0" y="0" class="st5 st3 st6">Human</tspan><tspan x="-26.1" y="33.7" class="st5 st3 st6">Professional</tspan></text>
</g>
<g>
	<text transform="matrix(1 0 0 1 673.5098 455.8428)"><tspan x="0" y="0" class="st5 st3 st6">Human</tspan><tspan x="-6.6" y="33.7" class="st5 st3 st6">Amateur</tspan></text>
</g>
<g>
	<path class="st7" d="M147.8,409.2c-0.5,5.5-5.4,10-10.9,10H70.7c-5.5,0-10.4-4.5-10.9-10L48.6,288.1c-0.5-5.5,3.6-10,9.1-10h92.2
		c5.5,0,9.6,4.5,9.1,10L147.8,409.2z"/>
</g>
<path class="st8" d="M127.6,316.3c-6.4-6.4-14.8-9.9-23.8-9.9c-9,0-17.4,3.5-23.8,9.9c-6.4,6.4-9.9,14.8-9.9,23.8
	c0,9,3.5,17.4,9.9,23.8c6.6,6.6,15.2,9.8,23.8,9.8c8.6,0,17.2-3.3,23.8-9.8c6.4-6.4,9.9-14.8,9.9-23.8
	C137.5,331.1,134,322.7,127.6,316.3z M128.5,340.1c0,5.1-1.5,9.9-4.3,14l-14-14l14-14C127,330.2,128.5,335.1,128.5,340.1z
	 M117.8,319.8l-14,14l-14-14c4.1-2.8,8.9-4.3,14-4.3C108.9,315.4,113.7,317,117.8,319.8z M83.5,326.1l14,14l-14,14
	c-2.8-4.1-4.3-8.9-4.3-14C79.1,335.1,80.6,330.2,83.5,326.1z M89.8,360.5l14-14l14,14C109.4,366.2,98.2,366.2,89.8,360.5z"/>
<path class="st5" d="M103.6,229.5c-23.7,0-42.9,19.2-42.9,42.9c0,0.1,0,0.1,0,0.2h85.7c0-0.1,0-0.1,0-0.2
	C146.4,248.7,127.3,229.5,103.6,229.5z"/>
<g>
	<path class="st9" d="M118.7,263c-4.1,2.1-8.5,0.1-9.7-4.5c0,0,0,0,0,0l15-7.5c0,0,0,0,0,0C125.2,255.6,122.9,261,118.7,263z"/>
	<path class="st9" d="M88.5,263c4.1,2.1,8.5,0.1,9.7-4.5c0,0,0,0,0,0l-15-7.5c0,0,0,0,0,0C81.9,255.6,84.3,261,88.5,263z"/>
</g>
<g>
	<path class="st1" d="M442.9,318.1l43,43l-43,42.7h-36.6l30.2-29.7h-66.8v-26.2h66.8l-30.2-29.7H442.9z"/>
	<g>
		<text transform="matrix(1 0 0 1 403.6562 369.7236)" class="st2 st3 st4">BEATS</text>
	</g>
</g>
<g>
	<path class="st1" d="M628.7,318.1l43,43l-43,42.7h-36.6l30.2-29.7h-66.8v-26.2h66.8l-30.2-29.7H628.7z"/>
	<g>
		<text transform="matrix(1 0 0 1 589.4746 369.7236)" class="st2 st3 st4">BEATS</text>
	</g>
</g>
<path class="st10" d="M540.8,279.5l-8.5,10.3l-0.7-8.8l-7.7,0l-0.7,8.8l-8.5-10.3c0,0-11.2,3.1-12.1,3.3
	c-17.9,4.4-9.7,59.9-2.6,55.1v73.2c0,4.5,4.6,8.1,10.3,8.1h0.5c5.4,0,10-3.3,10.3-7.6l4.2-50h4.7l4.2,50c0.4,4.3,4.9,7.6,10.3,7.6
	h0.5c5.7,0,10.3-3.6,10.3-8.1v-73.2c0,0,0,0,0,0c7.4,4.3,15.2-50.8-2.6-55.2C551.9,282.5,540.8,279.5,540.8,279.5L540.8,279.5z"/>
<path class="st11" d="M550.7,254.6c0,12.7-10.3,23.1-23.1,23.1c-12.7,0-23.1-10.3-23.1-23.1c0-12.7,10.3-23.1,23.1-23.1
	C540.3,231.5,550.7,241.9,550.7,254.6"/>
<circle class="st12" cx="514.5" cy="254" r="8.1"/>
<circle class="st12" cx="534.6" cy="254" r="8.1"/>
<polygon class="st13" points="549.3,307.1 551.2,317.2 542.1,312.2 533,317 534.9,306.9 527.5,299.9 537.7,298.7 542.1,289.4 
	546.6,298.7 556.7,300 "/>
<path class="st14" d="M149.6,180l-12.1,59.6l59.4,11.8l30.5-20.2l-41.5-8.2l-0.3,0.2l-14.4-21.8l0.3-0.2l8.8-41.4L149.6,180z"/>
<g class="st15">
	<text transform="matrix(1 0 0 1 395.958 156.0493)" class="st16 st17 st18">BEATS?!</text>
</g>
<path class="st11" d="M734.2,259.8c0,12.7-10.3,22.9-22.9,22.9s-22.9-10.3-22.9-22.9c0-12.7,10.3-22.9,22.9-22.9
	S734.2,247.1,734.2,259.8"/>
<g>
	<circle class="st19" cx="698.3" cy="265.4" r="3"/>
	<circle class="st19" cx="708" cy="265.4" r="3"/>
</g>
<g>
	<path class="st20" d="M688.9,249.4l-14.9,2.9c0,0,2.8,2.2,7.2,3.8c5.3,1.9,12.7,3.1,21.9,0.3C698.3,254.6,693.5,252.3,688.9,249.4
		L688.9,249.4z"/>
	<path class="st21" d="M716.7,231.9c-13-2.7-25.6,5.4-28.7,18.1c14.9,9.2,31.1,12.2,47.7,10C737.9,247,729.6,234.6,716.7,231.9
		L716.7,231.9z"/>
</g>
<g>
	<path class="st22" d="M739.2,338.4C739.2,338.4,739.2,338.4,739.2,338.4c7.4,4.3,15.1-50.5-2.6-54.9c-0.8-0.2-8.7-2.4-11.3-3.1
		c-1.3,7.2-6.9,12.6-13.6,12.6c-6.7,0-12.4-5.4-13.6-12.6c-2.4,0.7-10.5,2.9-11.3,3.1c-17.7,4.4-9.7,59.6-2.6,54.8v11.5h55V338.4z"
		/>
	<path class="st23" d="M684.2,349.8v61.3c0,4.4,4.6,8,10.3,8h0.5c5.4,0,9.9-3.3,10.3-7.5l4.2-49.7h4.7l4.2,49.7
		c0.4,4.2,4.8,7.5,10.2,7.5h0.5c5.7,0,10.3-3.6,10.3-8v-61.3H684.2z"/>
</g>
<g>
	<g>
		<path class="st24" d="M370.5,251.9H283c-2,0-3.5,1.5-3.5,3.4v43.5c0,1.8,1.5,3.4,3.5,3.4h87.5c2,0,3.4-1.5,3.4-3.4v-43.5
			C373.8,253.5,372.4,251.9,370.5,251.9z"/>
		<g class="st25">
			<circle class="st26" cx="347.1" cy="275.6" r="16.8"/>
			<circle class="st19" cx="347.1" cy="275.6" r="9"/>
		</g>
		<g class="st25">
			<circle class="st26" cx="306.5" cy="275.6" r="16.8"/>
			<circle class="st19" cx="306.5" cy="275.6" r="9"/>
		</g>
	</g>
	<g>
		<path class="st24" d="M370.5,329.4H283c-2,0-3.5,2.8-3.5,6v77.8c0,3.3,1.5,6,3.5,6h87.5c2,0,3.4-2.8,3.4-6v-77.8
			C373.8,332.2,372.4,329.4,370.5,329.4z"/>
		<rect x="295.3" y="342.9" class="st27" width="62.8" height="62.8"/>
		<g class="st15">
			<circle class="st28" cx="313.7" cy="361.3" r="12.3"/>
			<circle class="st16" cx="339.7" cy="361.3" r="12.3"/>
			<circle class="st16" cx="313.7" cy="387.3" r="12.3"/>
			<circle class="st28" cx="339.7" cy="387.3" r="12.3"/>
		</g>
	</g>
	<path class="st29" d="M335,306.7h-16.6c-0.4,0-0.7,0.6-0.7,1.2v15.6c0,0.7,0.3,1.2,0.7,1.2H335c0.4,0,0.6-0.6,0.6-1.2v-15.6
		C335.6,307.3,335.4,306.7,335,306.7z"/>
</g>
</svg>
