<?xml version="1.0" encoding="utf-8"?>
<!-- Generator: Adobe Illustrator 27.5.0, SVG Export Plug-In . SVG Version: 6.00 Build 0)  -->
<svg version="1.1" id="Layer_1" xmlns="http://www.w3.org/2000/svg" xmlns:xlink="http://www.w3.org/1999/xlink" x="0px" y="0px"
	 viewBox="0 0 1401 360" style="enable-background:new 0 0 1401 360;" xml:space="preserve">
<style type="text/css">
	.st0{fill:#202124;stroke:#202124;stroke-width:2;stroke-linecap:round;stroke-linejoin:round;}
	.st1{fill:#428EFF;stroke:#202124;stroke-width:2;stroke-linecap:round;stroke-linejoin:round;}
	.st2{fill:#FF5145;stroke:#202124;stroke-width:2;stroke-linecap:round;stroke-linejoin:round;}
	.st3{fill:#38A852;stroke:#202124;stroke-width:2;stroke-linecap:round;stroke-linejoin:round;}
	.st4{fill:#DADCE0;stroke:#202124;stroke-width:2;stroke-linecap:round;stroke-linejoin:round;}
	.st5{fill:#FFBB01;stroke:#202124;stroke-width:2;stroke-linecap:round;stroke-linejoin:round;}
</style>
<rect x="-21" y="-75.2" class="st0" width="1307" height="435.2"/>
<path class="st1" d="M659.3,199.3c121.4-23.5,238.9-51.6,349.6-83.9c209.3-63.9,358-123.4,473.8-185.6v-234.2
	c-38,121.1-184.1,253-432.9,349.2c-4.1,1.6-8.4,3.1-12.3,4.8C760.5,170.2,370.5,240.2-21,241.1v22
	C212.9,262.3,446.4,241.1,659.3,199.3L659.3,199.3z"/>
<path class="st2" d="M851.7,199.6c3-0.6,6-1.2,9-1.8C1098.8,151.3,1306,91,1482.8,23.3v-93.5C1366.9-8,1218.2,51.5,1008.9,115.4
	c-110.7,32.3-228.2,60.4-349.6,83.9c-213,41.8-446.5,63-680.3,63.8v18.3C278.5,280.6,577.5,253.3,851.7,199.6L851.7,199.6
	L851.7,199.6z"/>
<path class="st3" d="M851.7,199.6c-274.2,53.7-573.2,81-872.7,81.7v20.2c521.2-1,1042-63.7,1503.7-188.2V23.3
	c-176.7,67.8-384,128-622.1,174.6C857.7,198.5,854.7,199,851.7,199.6L851.7,199.6z"/>
<path class="st4" d="M1165.7,289.4c-147.1,15.2-293.7,26-437.7,32.8c-253.1,11.6-501.1,17.4-749,17.6v21.9h1503.7v-113
	C1385.1,262.8,1280.4,276.3,1165.7,289.4L1165.7,289.4L1165.7,289.4z"/>
<path class="st0" d="M915,273c-3.4,0.4-6.8,0.7-10.1,1C596.4,305.4,287.7,321.2-21,321.6v18.2c247.9-0.2,495.9-6.1,749-17.6
	c144.1-6.8,290.6-17.6,437.7-32.8c114.6-13.2,219.4-26.6,317-40.7v-58.9C1303.1,224.2,1113.4,252.4,915,273L915,273L915,273z"/>
<path class="st5" d="M-21,321.6c308.7-0.4,617.4-16.3,925.8-47.5c3.4-0.4,6.8-0.7,10.1-1c198.5-20.6,388.2-48.8,567.8-83.2v-76.5
	C1021,237.8,500.2,300.5-21,301.5V321.6L-21,321.6z"/>
</svg>
