<svg version="1.1" viewBox="0.0 0.0 960.0 540.0" fill="none" stroke="none" stroke-linecap="square" stroke-miterlimit="10" xmlns:xlink="http://www.w3.org/1999/xlink" xmlns="http://www.w3.org/2000/svg"><clipPath id="g13ffc37708c_0_65.0"><path d="m0 0l960.0 0l0 540.0l-960.0 0l0 -540.0z" clip-rule="nonzero"/></clipPath><g clip-path="url(#g13ffc37708c_0_65.0)"><path fill="#f8e71c" d="m0 0l960.0 0l0 540.0l-960.0 0z" fill-rule="evenodd"/><path fill="#000000" d="m450.0 0l7.5905457 0l0 540.0l-7.5905457 0z" fill-rule="evenodd"/><path fill="#01afd1" d="m457.58267 0l404.53543 0l0 540.0l-404.53543 0z" fill-rule="evenodd"/><path fill="#ffffff" d="m36.14173 147.38583l887.71655 0l0 225.38583l-887.71655 0z" fill-rule="evenodd"/><path fill="#000000" d="m444.47784 214.57437l0 0.953125q-1.046875 0.390625 -2.203125 1.671875q-1.15625 1.265625 -2.015625 4.046875l-8.453125 27.40625q-0.375 -0.046875 -0.8125 -0.046875q-0.4375 0 -0.859375 0q-0.4375 0 -0.875 0q-0.421875 0 -0.8125 0.046875l-10.078125 -30.53125q-0.484375 -1.484375 -1.1875 -2.0q-0.6875 -0.53125 -1.453125 -0.59375l0 -0.953125q1.34375 0.046875 3.1875 0.09375q1.859375 0.046875 3.671875 0.046875q2.109375 0 3.953125 -0.046875q1.859375 -0.046875 2.96875 -0.09375l0 0.953125q-1.4375 0.0625 -2.28125 0.34375q-0.84375 0.28125 -0.96875 1.109375q-0.109375 0.8125 0.453125 2.59375l6.828125 20.828125l-1.109375 1.96875l5.421875 -17.234375q1.15625 -3.65625 1.109375 -5.71875q-0.046875 -2.0625 -1.109375 -2.9375q-1.046875 -0.890625 -3.015625 -0.953125l0 -0.953125q1.625 0.046875 3.0625 0.09375q1.4375 0.046875 2.890625 0.046875q1.09375 0 2.03125 -0.046875q0.9375 -0.046875 1.65625 -0.09375zm-34.265625 0l0 0.953125q-0.96875 0.15625 -1.359375 0.703125q-0.375 0.546875 -0.3125 1.4375q0.078125 0.890625 0.421875 1.90625l7.34375 21.296875l-1.296875 1.734375l6.140625 -17.953125l0.671875 1.296875l-7.53125 22.703125q-0.390625 -0.046875 -0.828125 -0.046875q-0.421875 0 -0.859375 0q-0.421875 0 -0.859375 0q-0.4375 0 -0.8125 0.046875l-10.75 -30.046875q-0.625 -1.78125 -1.46875 -2.390625q-0.84375 -0.625 -1.5625 -0.6875l0 -0.953125q1.4375 0.046875 3.40625 0.09375q1.96875 0.046875 3.75 0.046875q1.921875 0 3.421875 -0.046875q1.515625 -0.046875 2.484375 -0.09375zm43.862366 -3.546875l0 16.5q1.203125 -2.484375 3.234375 -3.46875q2.046875 -0.984375 4.59375 -0.984375q2.0625 0 3.3125 0.5q1.25 0.5 1.96875 1.375q0.8125 0.90625 1.171875 2.34375q0.359375 1.4375 0.359375 3.890625l0 12.90625q0 2.015625 0.6875 2.734375q0.703125 0.71875 2.390625 0.71875l0 1.015625q-0.90625 -0.046875 -2.765625 -0.109375q-1.84375 -0.078125 -3.578125 -0.078125q-1.859375 0 -3.625 0.078125q-1.75 0.0625 -2.609375 0.109375l0 -1.015625q1.4375 0 2.015625 -0.71875q0.578125 -0.71875 0.578125 -2.734375l0 -14.921875q0 -1.203125 -0.25 -2.09375q-0.234375 -0.890625 -0.890625 -1.390625q-0.640625 -0.5 -1.84375 -0.5q-1.28125 0 -2.375 0.703125q-1.078125 0.6875 -1.734375 1.9375q-0.640625 1.25 -0.640625 2.875l0 13.390625q0 2.015625 0.578125 2.734375q0.578125 0.71875 2.015625 0.71875l0 1.015625q-0.859375 -0.046875 -2.546875 -0.109375q-1.671875 -0.078125 -3.40625 -0.078125q-1.875 0 -3.765625 0.078125q-1.890625 0.0625 -2.859375 0.109375l0 -1.015625q1.6875 0 2.375 -0.71875q0.703125 -0.71875 0.703125 -2.734375l0 -27.3125q0 -2.15625 -0.65625 -3.1875q-0.640625 -1.03125 -2.421875 -1.03125l0 -1.015625q1.546875 0.15625 2.984375 0.15625q1.96875 0 3.734375 -0.171875q1.78125 -0.171875 3.265625 -0.5zm26.074677 37.875q-2.171875 0 -3.609375 -0.8125q-1.4375 -0.828125 -2.109375 -2.1875q-0.671875 -1.375 -0.671875 -3.0q0 -2.078125 0.9375 -3.359375q0.9375 -1.296875 2.421875 -2.109375q1.484375 -0.828125 3.140625 -1.359375q1.65625 -0.53125 3.171875 -1.03125q1.515625 -0.5 2.453125 -1.1875q0.9375 -0.703125 0.9375 -1.8125l0 -3.734375q0 -1.25 -0.421875 -2.234375q-0.40625 -0.984375 -1.25 -1.515625q-0.828125 -0.53125 -2.171875 -0.53125q-0.96875 0 -1.921875 0.265625q-0.953125 0.265625 -1.578125 0.890625q1.34375 0.484375 2.078125 1.46875q0.75 0.984375 0.75 2.21875q0 1.640625 -1.125 2.609375q-1.125 0.953125 -2.671875 0.953125q-1.71875 0 -2.609375 -1.078125q-0.890625 -1.078125 -0.890625 -2.625q0 -1.390625 0.6875 -2.296875q0.703125 -0.921875 1.953125 -1.734375q1.34375 -0.765625 3.234375 -1.1875q1.90625 -0.4375 4.109375 -0.4375q2.203125 0 3.984375 0.453125q1.78125 0.453125 2.96875 1.65625q1.109375 1.109375 1.4375 2.71875q0.34375 1.59375 0.34375 4.046875l0 13.0625q0 1.1875 0.234375 1.65625q0.25 0.453125 0.828125 0.453125q0.421875 0 0.828125 -0.234375q0.40625 -0.25 0.890625 -0.578125l0.484375 0.8125q-1.015625 0.859375 -2.34375 1.328125q-1.3125 0.453125 -2.9375 0.453125q-1.78125 0 -2.84375 -0.5q-1.046875 -0.515625 -1.5 -1.375q-0.453125 -0.875 -0.453125 -2.015625q-1.15625 1.8125 -2.796875 2.859375q-1.625 1.03125 -3.96875 1.03125zm3.40625 -3.078125q0.953125 0 1.75 -0.453125q0.796875 -0.453125 1.515625 -1.515625l0 -9.84375q-0.4375 0.71875 -1.203125 1.296875q-0.765625 0.578125 -1.640625 1.1875q-0.859375 0.59375 -1.65625 1.3125q-0.78125 0.71875 -1.265625 1.78125q-0.484375 1.046875 -0.484375 2.53125q0 1.875 0.8125 2.796875q0.828125 0.90625 2.171875 0.90625zm24.56717 -29.953125l0 7.875l5.671875 0l0 0.953125l-5.671875 0l0 19.390625q0 1.4375 0.53125 2.046875q0.53125 0.59375 1.59375 0.59375q0.859375 0 1.71875 -0.640625q0.859375 -0.65625 1.53125 -2.234375l0.828125 0.4375q-0.78125 2.15625 -2.34375 3.546875q-1.546875 1.390625 -4.234375 1.390625q-1.59375 0 -2.796875 -0.40625q-1.1875 -0.40625 -2.0 -1.21875q-1.0625 -1.0625 -1.40625 -2.625q-0.328125 -1.5625 -0.328125 -4.046875l0 -16.234375l-4.03125 0l0 -0.953125l4.03125 0l0 -6.34375q2.015625 0 3.71875 -0.359375q1.703125 -0.359375 3.1875 -1.171875zm24.24408 -4.515625q2.015625 0 3.1875 0.984375q1.1875 0.984375 1.1875 2.71875q0 1.71875 -1.1875 2.703125q-1.171875 0.984375 -3.1875 0.984375q-2.015625 0 -3.1875 -0.984375q-1.171875 -0.984375 -1.171875 -2.703125q0 -1.734375 1.171875 -2.71875q1.171875 -0.984375 3.1875 -0.984375zm3.75 11.859375l0 20.875q0 2.015625 0.6875 2.734375q0.703125 0.71875 2.375 0.71875l0 1.015625q-0.859375 -0.046875 -2.6875 -0.109375q-1.8125 -0.078125 -3.6875 -0.078125q-1.875 0 -3.796875 0.078125q-1.921875 0.0625 -2.875 0.109375l0 -1.015625q1.671875 0 2.359375 -0.71875q0.703125 -0.71875 0.703125 -2.734375l0 -15.109375q0 -2.171875 -0.65625 -3.203125q-0.640625 -1.03125 -2.40625 -1.03125l0 -1.0q1.53125 0.140625 2.96875 0.140625q2.015625 0 3.765625 -0.171875q1.75 -0.171875 3.25 -0.5zm14.63562 -0.140625q2.015625 0 3.53125 0.5q1.515625 0.5 2.1875 0.984375q1.625 1.109375 2.015625 -1.4375l1.0 0q-0.09375 1.34375 -0.140625 3.296875q-0.046875 1.9375 -0.046875 5.15625l-1.015625 0q-0.234375 -1.78125 -0.90625 -3.5q-0.671875 -1.734375 -1.953125 -2.84375q-1.265625 -1.109375 -3.28125 -1.109375q-1.390625 0 -2.359375 0.796875q-0.953125 0.796875 -0.953125 2.28125q0 1.4375 0.859375 2.515625q0.875 1.078125 2.234375 2.0625q1.375 0.984375 2.859375 2.09375q1.578125 1.203125 2.875 2.375q1.296875 1.171875 2.0625 2.5625q0.78125 1.390625 0.78125 3.3125q0 2.171875 -1.25 3.78125q-1.25 1.59375 -3.296875 2.46875q-2.03125 0.859375 -4.53125 0.859375q-1.4375 0 -2.578125 -0.296875q-1.125 -0.28125 -1.9375 -0.71875q-0.625 -0.28125 -1.171875 -0.546875q-0.546875 -0.265625 -1.03125 -0.453125q-0.484375 -0.140625 -0.84375 0.34375q-0.359375 0.46875 -0.546875 1.34375l-1.015625 0q0.09375 -1.546875 0.140625 -3.75q0.0625 -2.203125 0.0625 -5.859375l1.0 0q0.296875 2.59375 1.0625 4.59375q0.765625 1.984375 2.078125 3.109375q1.328125 1.125 3.34375 1.125q0.8125 0 1.578125 -0.328125q0.765625 -0.34375 1.265625 -1.109375q0.515625 -0.765625 0.515625 -1.96875q0 -2.109375 -1.375 -3.5q-1.359375 -1.390625 -3.46875 -3.03125q-1.546875 -1.234375 -2.921875 -2.453125q-1.359375 -1.234375 -2.21875 -2.6875q-0.859375 -1.46875 -0.859375 -3.34375q0 -2.171875 1.140625 -3.65625q1.15625 -1.484375 3.046875 -2.21875q1.90625 -0.75 4.0625 -0.75z" fill-rule="nonzero"/><path fill="#000000" d="m178.05702 272.17438l0 0.953125q-1.53125 0.203125 -2.3125 0.8125q-0.765625 0.59375 -1.03125 1.890625q-0.265625 1.28125 -0.265625 3.640625l0 26.78125q-0.5625 -0.046875 -1.171875 -0.046875q-0.59375 0 -1.265625 0.046875l-20.828125 -26.390625l0 18.421875q0 2.640625 0.28125 4.0625q0.28125 1.40625 1.265625 2.015625q0.984375 0.59375 3.109375 0.84375l0 0.953125q-0.921875 -0.09375 -2.40625 -0.109375q-1.484375 -0.03125 -2.78125 -0.03125q-1.109375 0 -2.265625 0.03125q-1.140625 0.015625 -1.90625 0.109375l0 -0.953125q1.53125 -0.25 2.296875 -0.828125q0.765625 -0.578125 1.03125 -1.890625q0.265625 -1.3125 0.265625 -3.625l0 -21.59375q0 -1.78125 -0.265625 -2.625q-0.265625 -0.84375 -1.0625 -1.140625q-0.78125 -0.3125 -2.265625 -0.375l0 -0.953125q0.765625 0.046875 1.90625 0.09375q1.15625 0.046875 2.265625 0.046875q1.15625 0 2.203125 -0.046875q1.0625 -0.046875 1.921875 -0.09375l18.578125 22.890625l0 -15.015625q0 -2.640625 -0.296875 -4.046875q-0.28125 -1.421875 -1.265625 -2.046875q-0.984375 -0.625 -3.09375 -0.828125l0 -0.953125q0.90625 0.046875 2.390625 0.09375q1.5 0.046875 2.796875 0.046875q1.140625 0 2.265625 -0.046875q1.140625 -0.046875 1.90625 -0.09375zm8.211685 34.328125q-2.171875 0 -3.609375 -0.8125q-1.4375 -0.828125 -2.109375 -2.1875q-0.671875 -1.375 -0.671875 -3.0q0 -2.078125 0.9375 -3.359375q0.9375 -1.296875 2.421875 -2.109375q1.484375 -0.828125 3.140625 -1.359375q1.65625 -0.53125 3.171875 -1.03125q1.515625 -0.5 2.453125 -1.1875q0.9375 -0.703125 0.9375 -1.8125l0 -3.734375q0 -1.25 -0.421875 -2.234375q-0.40625 -0.984375 -1.25 -1.515625q-0.828125 -0.53125 -2.171875 -0.53125q-0.96875 0 -1.921875 0.265625q-0.953125 0.265625 -1.578125 0.890625q1.34375 0.484375 2.078125 1.46875q0.75 0.984375 0.75 2.21875q0 1.640625 -1.125 2.609375q-1.125 0.953125 -2.671875 0.953125q-1.71875 0 -2.609375 -1.078125q-0.890625 -1.078125 -0.890625 -2.625q0 -1.390625 0.6875 -2.296875q0.703125 -0.921875 1.953125 -1.734375q1.34375 -0.765625 3.234375 -1.1875q1.90625 -0.4375 4.109375 -0.4375q2.203125 0 3.984375 0.453125q1.78125 0.453125 2.96875 1.65625q1.109375 1.109375 1.4375 2.71875q0.34375 1.59375 0.34375 4.046875l0 13.0625q0 1.1875 0.234375 1.65625q0.25 0.453125 0.828125 0.453125q0.421875 0 0.828125 -0.234375q0.40625 -0.25 0.890625 -0.578125l0.484375 0.8125q-1.015625 0.859375 -2.34375 1.328125q-1.3125 0.453125 -2.9375 0.453125q-1.78125 0 -2.84375 -0.5q-1.046875 -0.515625 -1.5 -1.375q-0.453125 -0.875 -0.453125 -2.015625q-1.15625 1.8125 -2.796875 2.859375q-1.625 1.03125 -3.96875 1.03125zm3.40625 -3.078125q0.953125 0 1.75 -0.453125q0.796875 -0.453125 1.515625 -1.515625l0 -9.84375q-0.4375 0.71875 -1.203125 1.296875q-0.765625 0.578125 -1.640625 1.1875q-0.859375 0.59375 -1.65625 1.3125q-0.78125 0.71875 -1.265625 1.78125q-0.484375 1.046875 -0.484375 2.53125q0 1.875 0.8125 2.796875q0.828125 0.90625 2.171875 0.90625zm24.56717 -29.953125l0 7.875l5.671875 0l0 0.953125l-5.671875 0l0 19.390625q0 1.4375 0.53125 2.046875q0.53125 0.59375 1.59375 0.59375q0.859375 0 1.71875 -0.640625q0.859375 -0.65625 1.53125 -2.234375l0.828125 0.4375q-0.78125 2.15625 -2.34375 3.546875q-1.546875 1.390625 -4.234375 1.390625q-1.59375 0 -2.796875 -0.40625q-1.1875 -0.40625 -2.0 -1.21875q-1.0625 -1.0625 -1.40625 -2.625q-0.328125 -1.5625 -0.328125 -4.046875l0 -16.234375l-4.03125 0l0 -0.953125l4.03125 0l0 -6.34375q2.015625 0 3.71875 -0.359375q1.703125 -0.359375 3.1875 -1.171875zm31.067917 7.34375l0 20.109375q0 2.15625 0.671875 3.1875q0.671875 1.03125 2.390625 1.03125l0 1.015625q-1.484375 -0.140625 -2.96875 -0.140625q-2.015625 0 -3.75 0.140625q-1.71875 0.140625 -3.265625 0.53125l0 -4.328125q-1.15625 2.40625 -3.203125 3.4375q-2.03125 1.03125 -4.515625 1.03125q-2.015625 0 -3.265625 -0.53125q-1.25 -0.53125 -1.96875 -1.34375q-0.8125 -0.90625 -1.15625 -2.390625q-0.328125 -1.5 -0.328125 -3.84375l0 -12.140625q0 -2.171875 -0.65625 -3.203125q-0.640625 -1.03125 -2.421875 -1.03125l0 -1.0q1.53125 0.140625 2.96875 0.140625q2.015625 0 3.765625 -0.171875q1.765625 -0.171875 3.25 -0.5l0 19.875q0 1.203125 0.21875 2.109375q0.21875 0.90625 0.828125 1.421875q0.625 0.5 1.828125 0.5q1.296875 0 2.328125 -0.71875q1.03125 -0.71875 1.671875 -1.984375q0.65625 -1.28125 0.65625 -2.875l0 -12.5625q0 -2.171875 -0.65625 -3.203125q-0.640625 -1.03125 -2.40625 -1.03125l0 -1.0q1.53125 0.140625 2.96875 0.140625q2.015625 0 3.765625 -0.171875q1.75 -0.171875 3.25 -0.5zm21.681808 -0.140625q1.546875 0 2.5 0.65625q0.96875 0.640625 1.421875 1.65625q0.453125 1.0 0.453125 2.09375q0 1.78125 -1.03125 2.90625q-1.03125 1.125 -2.71875 1.125q-1.671875 0 -2.609375 -0.828125q-0.9375 -0.84375 -0.9375 -2.234375q0 -1.34375 0.59375 -2.234375q0.609375 -0.890625 1.515625 -1.515625q-0.671875 -0.1875 -1.34375 0.046875q-0.90625 0.15625 -1.734375 0.75q-0.8125 0.59375 -1.390625 1.484375q-0.5625 0.890625 -0.90625 1.921875q-0.328125 1.03125 -0.328125 2.0l0 12.71875q0 2.296875 1.125 3.109375q1.125 0.8125 3.375 0.8125l0 1.015625q-1.09375 -0.046875 -3.21875 -0.109375q-2.109375 -0.078125 -4.40625 -0.078125q-1.921875 0 -3.890625 0.078125q-1.96875 0.0625 -2.96875 0.109375l0 -1.015625q1.671875 0 2.359375 -0.71875q0.703125 -0.71875 0.703125 -2.734375l0 -15.109375q0 -2.171875 -0.65625 -3.203125q-0.640625 -1.03125 -2.40625 -1.03125l0 -1.0q1.53125 0.140625 2.96875 0.140625q2.015625 0 3.765625 -0.171875q1.75 -0.171875 3.25 -0.5l0 4.46875q0.578125 -1.296875 1.53125 -2.34375q0.953125 -1.0625 2.203125 -1.65625q1.25 -0.609375 2.78125 -0.609375zm12.541046 25.828125q-2.171875 0 -3.609375 -0.8125q-1.4375 -0.828125 -2.109375 -2.1875q-0.671875 -1.375 -0.671875 -3.0q0 -2.078125 0.9375 -3.359375q0.9375 -1.296875 2.421875 -2.109375q1.484375 -0.828125 3.140625 -1.359375q1.65625 -0.53125 3.171875 -1.03125q1.515625 -0.5 2.453125 -1.1875q0.9375 -0.703125 0.9375 -1.8125l0 -3.734375q0 -1.25 -0.421875 -2.234375q-0.40625 -0.984375 -1.25 -1.515625q-0.828125 -0.53125 -2.171875 -0.53125q-0.96875 0 -1.921875 0.265625q-0.953125 0.265625 -1.578125 0.890625q1.34375 0.484375 2.078125 1.46875q0.75 0.984375 0.75 2.21875q0 1.640625 -1.125 2.609375q-1.125 0.953125 -2.671875 0.953125q-1.71875 0 -2.609375 -1.078125q-0.890625 -1.078125 -0.890625 -2.625q0 -1.390625 0.6875 -2.296875q0.703125 -0.921875 1.953125 -1.734375q1.34375 -0.765625 3.234375 -1.1875q1.90625 -0.4375 4.109375 -0.4375q2.203125 0 3.984375 0.453125q1.78125 0.453125 2.96875 1.65625q1.109375 1.109375 1.4375 2.71875q0.34375 1.59375 0.34375 4.046875l0 13.0625q0 1.1875 0.234375 1.65625q0.25 0.453125 0.828125 0.453125q0.421875 0 0.828125 -0.234375q0.40625 -0.25 0.890625 -0.578125l0.484375 0.8125q-1.015625 0.859375 -2.34375 1.328125q-1.3125 0.453125 -2.9375 0.453125q-1.78125 0 -2.84375 -0.5q-1.046875 -0.515625 -1.5 -1.375q-0.453125 -0.875 -0.453125 -2.015625q-1.15625 1.8125 -2.796875 2.859375q-1.625 1.03125 -3.96875 1.03125zm3.40625 -3.078125q0.953125 0 1.75 -0.453125q0.796875 -0.453125 1.515625 -1.515625l0 -9.84375q-0.4375 0.71875 -1.203125 1.296875q-0.765625 0.578125 -1.640625 1.1875q-0.859375 0.59375 -1.65625 1.3125q-0.78125 0.71875 -1.265625 1.78125q-0.484375 1.046875 -0.484375 2.53125q0 1.875 0.8125 2.796875q0.828125 0.90625 2.171875 0.90625zm24.614014 -34.84375l0 33.109375q0 2.015625 0.703125 2.734375q0.703125 0.71875 2.375 0.71875l0 1.015625q-0.90625 -0.046875 -2.734375 -0.109375q-1.828125 -0.078125 -3.703125 -0.078125q-1.859375 0 -3.765625 0.078125q-1.890625 0.0625 -2.859375 0.109375l0 -1.015625q1.6875 0 2.375 -0.71875q0.703125 -0.71875 0.703125 -2.734375l0 -27.359375q0 -2.15625 -0.65625 -3.1875q-0.640625 -1.03125 -2.421875 -1.03125l0 -1.015625q1.546875 0.15625 2.984375 0.15625q1.96875 0 3.734375 -0.171875q1.78125 -0.171875 3.265625 -0.5zm31.92456 3.59375l0 0.953125q-1.625 0.0625 -2.46875 0.375q-0.84375 0.296875 -1.140625 1.140625q-0.28125 0.84375 -0.28125 2.625l0 24.375q0 1.484375 0.21875 2.21875q0.21875 0.71875 0.859375 0.953125q0.65625 0.234375 1.953125 0.234375l2.34375 0q1.640625 0 3.078125 -0.765625q1.4375 -0.765625 2.59375 -2.171875q1.15625 -1.421875 1.921875 -3.390625q0.765625 -1.96875 1.140625 -4.375l1.109375 0q-0.140625 1.640625 -0.140625 4.234375q0 1.09375 0.046875 3.21875q0.046875 2.109375 0.28125 4.359375q-2.4375 -0.09375 -5.515625 -0.109375q-3.0625 -0.03125 -5.46875 -0.03125q-1.203125 0 -3.078125 0q-1.859375 0 -4.03125 0.03125q-2.15625 0.015625 -4.375 0.046875q-2.203125 0.015625 -4.171875 0.0625l0 -0.953125q1.546875 -0.109375 2.3125 -0.390625q0.765625 -0.28125 1.03125 -1.140625q0.265625 -0.875 0.265625 -2.609375l0 -23.796875q0 -1.78125 -0.265625 -2.625q-0.265625 -0.84375 -1.0625 -1.140625q-0.78125 -0.3125 -2.28125 -0.375l0 -0.953125q1.203125 0.046875 3.234375 0.09375q2.046875 0.046875 4.359375 0.046875q2.109375 0 4.140625 -0.046875q2.046875 -0.046875 3.390625 -0.09375zm20.359314 34.328125q-2.171875 0 -3.609375 -0.8125q-1.4375 -0.828125 -2.109375 -2.1875q-0.671875 -1.375 -0.671875 -3.0q0 -2.078125 0.9375 -3.359375q0.9375 -1.296875 2.421875 -2.109375q1.484375 -0.828125 3.140625 -1.359375q1.65625 -0.53125 3.171875 -1.03125q1.515625 -0.5 2.453125 -1.1875q0.9375 -0.703125 0.9375 -1.8125l0 -3.734375q0 -1.25 -0.421875 -2.234375q-0.40625 -0.984375 -1.25 -1.515625q-0.828125 -0.53125 -2.171875 -0.53125q-0.96875 0 -1.921875 0.265625q-0.953125 0.265625 -1.578125 0.890625q1.34375 0.484375 2.078125 1.46875q0.75 0.984375 0.75 2.21875q0 1.640625 -1.125 2.609375q-1.125 0.953125 -2.671875 0.953125q-1.71875 0 -2.609375 -1.078125q-0.890625 -1.078125 -0.890625 -2.625q0 -1.390625 0.6875 -2.296875q0.703125 -0.921875 1.953125 -1.734375q1.34375 -0.765625 3.234375 -1.1875q1.90625 -0.4375 4.109375 -0.4375q2.203125 0 3.984375 0.453125q1.78125 0.453125 2.96875 1.65625q1.109375 1.109375 1.4375 2.71875q0.34375 1.59375 0.34375 4.046875l0 13.0625q0 1.1875 0.234375 1.65625q0.25 0.453125 0.828125 0.453125q0.421875 0 0.828125 -0.234375q0.40625 -0.25 0.890625 -0.578125l0.484375 0.8125q-1.015625 0.859375 -2.34375 1.328125q-1.3125 0.453125 -2.9375 0.453125q-1.78125 0 -2.84375 -0.5q-1.046875 -0.515625 -1.5 -1.375q-0.453125 -0.875 -0.453125 -2.015625q-1.15625 1.8125 -2.796875 2.859375q-1.625 1.03125 -3.96875 1.03125zm3.40625 -3.078125q0.953125 0 1.75 -0.453125q0.796875 -0.453125 1.515625 -1.515625l0 -9.84375q-0.4375 0.71875 -1.203125 1.296875q-0.765625 0.578125 -1.640625 1.1875q-0.859375 0.59375 -1.65625 1.3125q-0.78125 0.71875 -1.265625 1.78125q-0.484375 1.046875 -0.484375 2.53125q0 1.875 0.8125 2.796875q0.828125 0.90625 2.171875 0.90625zm32.69217 -22.75q2.015625 0 3.28125 0.5q1.265625 0.5 1.984375 1.375q0.78125 0.90625 1.140625 2.34375q0.359375 1.4375 0.359375 3.890625l0 12.90625q0 2.015625 0.6875 2.734375q0.703125 0.71875 2.375 0.71875l0 1.015625q-0.90625 -0.046875 -2.734375 -0.109375q-1.828125 -0.078125 -3.59375 -0.078125q-1.828125 0 -3.578125 0.078125q-1.75 0.0625 -2.671875 0.109375l0 -1.015625q1.453125 0 2.015625 -0.71875q0.578125 -0.71875 0.578125 -2.734375l0 -14.921875q0 -1.203125 -0.234375 -2.09375q-0.234375 -0.890625 -0.859375 -1.390625q-0.625 -0.5 -1.875 -0.5q-1.296875 0 -2.375 0.71875q-1.078125 0.71875 -1.734375 2.0q-0.640625 1.265625 -0.640625 2.84375l0 13.34375q0 2.015625 0.59375 2.734375q0.609375 0.71875 2.0 0.71875l0 1.015625q-0.875 -0.046875 -2.53125 -0.109375q-1.65625 -0.078125 -3.421875 -0.078125q-1.828125 0 -3.75 0.078125q-1.921875 0.0625 -2.875 0.109375l0 -1.015625q1.671875 0 2.359375 -0.71875q0.703125 -0.71875 0.703125 -2.734375l0 -15.109375q0 -2.171875 -0.65625 -3.203125q-0.640625 -1.03125 -2.40625 -1.03125l0 -1.0q1.53125 0.140625 2.96875 0.140625q2.015625 0 3.765625 -0.171875q1.75 -0.171875 3.25 -0.5l0 4.3125q1.203125 -2.4375 3.265625 -3.4375q2.0625 -1.015625 4.609375 -1.015625zm20.589203 34.515625q-2.984375 0 -5.3125 -0.515625q-2.328125 -0.5 -3.65625 -1.53125q-1.3125 -1.03125 -1.3125 -2.515625q0 -1.5 1.34375 -2.671875q1.34375 -1.171875 3.984375 -1.84375l0.4375 0.765625q-0.90625 0.71875 -1.328125 1.5625q-0.40625 0.84375 -0.40625 1.75q0 2.015625 1.84375 3.09375q1.859375 1.078125 5.03125 1.078125q2.15625 0 3.859375 -0.578125q1.703125 -0.5625 2.6875 -1.71875q0.984375 -1.15625 0.984375 -2.828125q0 -1.453125 -1.0625 -2.4375q-1.046875 -0.984375 -4.21875 -0.984375l-2.96875 0q-1.96875 0 -3.4375 -0.421875q-1.46875 -0.4375 -2.28125 -1.375q-0.8125 -0.9375 -0.8125 -2.375q0 -2.015625 1.578125 -3.546875q1.59375 -1.53125 4.703125 -2.875l0.484375 0.375q-0.90625 0.578125 -1.703125 1.234375q-0.796875 0.640625 -0.796875 1.640625q0 1.546875 1.921875 1.546875l5.234375 0q2.640625 0 4.71875 0.625q2.09375 0.625 3.3125 2.046875q1.234375 1.40625 1.234375 3.65625q0 2.359375 -1.515625 4.375q-1.515625 2.015625 -4.640625 3.234375q-3.109375 1.234375 -7.90625 1.234375zm0.46875 -19.25q-2.734375 0 -4.890625 -0.8125q-2.15625 -0.828125 -3.40625 -2.5q-1.25 -1.6875 -1.25 -4.328125q0 -2.640625 1.25 -4.34375q1.25 -1.703125 3.40625 -2.484375q2.15625 -0.796875 4.890625 -0.796875q2.75 0 4.90625 0.796875q2.15625 0.78125 3.40625 2.484375q1.25 1.703125 1.25 4.34375q0 2.640625 -1.25 4.328125q-1.25 1.671875 -3.40625 2.5q-2.15625 0.8125 -4.90625 0.8125zm0 -0.875q1.296875 0 2.015625 -1.453125q0.734375 -1.46875 0.734375 -5.3125q0 -3.84375 -0.734375 -5.296875q-0.71875 -1.46875 -2.015625 -1.46875q-1.234375 0 -1.984375 1.46875q-0.75 1.453125 -0.75 5.296875q0 3.84375 0.75 5.3125q0.75 1.453125 1.984375 1.453125zm7.5 -10.265625l-0.96875 -0.34375q0.71875 -1.859375 2.328125 -3.109375q1.609375 -1.25 3.484375 -1.25q1.53125 0 2.328125 0.84375q0.796875 0.828125 0.796875 2.171875q0 1.453125 -0.78125 2.15625q-0.765625 0.6875 -1.71875 0.6875q-0.8125 0 -1.515625 -0.578125q-0.6875 -0.578125 -0.796875 -1.75q-0.09375 -1.1875 0.828125 -3.046875l0.328125 0.28125q-1.828125 0.671875 -2.734375 1.5625q-0.90625 0.890625 -1.578125 2.375zm33.169067 -3.984375l0 20.109375q0 2.15625 0.671875 3.1875q0.671875 1.03125 2.390625 1.03125l0 1.015625q-1.484375 -0.140625 -2.96875 -0.140625q-2.015625 0 -3.75 0.140625q-1.71875 0.140625 -3.265625 0.53125l0 -4.328125q-1.15625 2.40625 -3.203125 3.4375q-2.03125 1.03125 -4.515625 1.03125q-2.015625 0 -3.265625 -0.53125q-1.25 -0.53125 -1.96875 -1.34375q-0.8125 -0.90625 -1.15625 -2.390625q-0.328125 -1.5 -0.328125 -3.84375l0 -12.140625q0 -2.171875 -0.65625 -3.203125q-0.640625 -1.03125 -2.421875 -1.03125l0 -1.0q1.53125 0.140625 2.96875 0.140625q2.015625 0 3.765625 -0.171875q1.765625 -0.171875 3.25 -0.5l0 19.875q0 1.203125 0.21875 2.109375q0.21875 0.90625 0.828125 1.421875q0.625 0.5 1.828125 0.5q1.296875 0 2.328125 -0.71875q1.03125 -0.71875 1.671875 -1.984375q0.65625 -1.28125 0.65625 -2.875l0 -12.5625q0 -2.171875 -0.65625 -3.203125q-0.640625 -1.03125 -2.40625 -1.03125l0 -1.0q1.53125 0.140625 2.96875 0.140625q2.015625 0 3.765625 -0.171875q1.75 -0.171875 3.25 -0.5zm11.806824 25.6875q-2.171875 0 -3.609375 -0.8125q-1.4375 -0.828125 -2.109375 -2.1875q-0.671875 -1.375 -0.671875 -3.0q0 -2.078125 0.9375 -3.359375q0.9375 -1.296875 2.421875 -2.109375q1.484375 -0.828125 3.140625 -1.359375q1.65625 -0.53125 3.171875 -1.03125q1.515625 -0.5 2.453125 -1.1875q0.9375 -0.703125 0.9375 -1.8125l0 -3.734375q0 -1.25 -0.421875 -2.234375q-0.40625 -0.984375 -1.25 -1.515625q-0.828125 -0.53125 -2.171875 -0.53125q-0.96875 0 -1.921875 0.265625q-0.953125 0.265625 -1.578125 0.890625q1.34375 0.484375 2.078125 1.46875q0.75 0.984375 0.75 2.21875q0 1.640625 -1.125 2.609375q-1.125 0.953125 -2.671875 0.953125q-1.71875 0 -2.609375 -1.078125q-0.890625 -1.078125 -0.890625 -2.625q0 -1.390625 0.6875 -2.296875q0.703125 -0.921875 1.953125 -1.734375q1.34375 -0.765625 3.234375 -1.1875q1.90625 -0.4375 4.109375 -0.4375q2.203125 0 3.984375 0.453125q1.78125 0.453125 2.96875 1.65625q1.109375 1.109375 1.4375 2.71875q0.34375 1.59375 0.34375 4.046875l0 13.0625q0 1.1875 0.234375 1.65625q0.25 0.453125 0.828125 0.453125q0.421875 0 0.828125 -0.234375q0.40625 -0.25 0.890625 -0.578125l0.484375 0.8125q-1.015625 0.859375 -2.34375 1.328125q-1.3125 0.453125 -2.9375 0.453125q-1.78125 0 -2.84375 -0.5q-1.046875 -0.515625 -1.5 -1.375q-0.453125 -0.875 -0.453125 -2.015625q-1.15625 1.8125 -2.796875 2.859375q-1.625 1.03125 -3.96875 1.03125zm3.40625 -3.078125q0.953125 0 1.75 -0.453125q0.796875 -0.453125 1.515625 -1.515625l0 -9.84375q-0.4375 0.71875 -1.203125 1.296875q-0.765625 0.578125 -1.640625 1.1875q-0.859375 0.59375 -1.65625 1.3125q-0.78125 0.71875 -1.265625 1.78125q-0.484375 1.046875 -0.484375 2.53125q0 1.875 0.8125 2.796875q0.828125 0.90625 2.171875 0.90625zm24.145294 11.765625q-2.984375 0 -5.3125 -0.515625q-2.328125 -0.5 -3.65625 -1.53125q-1.3125 -1.03125 -1.3125 -2.515625q0 -1.5 1.34375 -2.671875q1.34375 -1.171875 3.984375 -1.84375l0.4375 0.765625q-0.90625 0.71875 -1.328125 1.5625q-0.40625 0.84375 -0.40625 1.75q0 2.015625 1.84375 3.09375q1.859375 1.078125 5.03125 1.078125q2.15625 0 3.859375 -0.578125q1.703125 -0.5625 2.6875 -1.71875q0.984375 -1.15625 0.984375 -2.828125q0 -1.453125 -1.0625 -2.4375q-1.046875 -0.984375 -4.21875 -0.984375l-2.96875 0q-1.96875 0 -3.4375 -0.421875q-1.46875 -0.4375 -2.28125 -1.375q-0.8125 -0.9375 -0.8125 -2.375q0 -2.015625 1.578125 -3.546875q1.59375 -1.53125 4.703125 -2.875l0.484375 0.375q-0.90625 0.578125 -1.703125 1.234375q-0.796875 0.640625 -0.796875 1.640625q0 1.546875 1.921875 1.546875l5.234375 0q2.640625 0 4.71875 0.625q2.09375 0.625 3.3125 2.046875q1.234375 1.40625 1.234375 3.65625q0 2.359375 -1.515625 4.375q-1.515625 2.015625 -4.640625 3.234375q-3.109375 1.234375 -7.90625 1.234375zm0.46875 -19.25q-2.734375 0 -4.890625 -0.8125q-2.15625 -0.828125 -3.40625 -2.5q-1.25 -1.6875 -1.25 -4.328125q0 -2.640625 1.25 -4.34375q1.25 -1.703125 3.40625 -2.484375q2.15625 -0.796875 4.890625 -0.796875q2.75 0 4.90625 0.796875q2.15625 0.78125 3.40625 2.484375q1.25 1.703125 1.25 4.34375q0 2.640625 -1.25 4.328125q-1.25 1.671875 -3.40625 2.5q-2.15625 0.8125 -4.90625 0.8125zm0 -0.875q1.296875 0 2.015625 -1.453125q0.734375 -1.46875 0.734375 -5.3125q0 -3.84375 -0.734375 -5.296875q-0.71875 -1.46875 -2.015625 -1.46875q-1.234375 0 -1.984375 1.46875q-0.75 1.453125 -0.75 5.296875q0 3.84375 0.75 5.3125q0.75 1.453125 1.984375 1.453125zm7.5 -10.265625l-0.96875 -0.34375q0.71875 -1.859375 2.328125 -3.109375q1.609375 -1.25 3.484375 -1.25q1.53125 0 2.3281555 0.84375q0.796875 0.828125 0.796875 2.171875q0 1.453125 -0.78125 2.15625q-0.7656555 0.6875 -1.7187805 0.6875q-0.8125 0 -1.515625 -0.578125q-0.6875 -0.578125 -0.796875 -1.75q-0.09375 -1.1875 0.828125 -3.046875l0.328125 0.28125q-1.828125 0.671875 -2.734375 1.5625q-0.90625 0.890625 -1.578125 2.375zm20.869781 -4.125q4.234375 0 6.625 2.5q2.40625 2.484375 2.40625 8.15625l-15.796875 0l-0.09375 -0.921875l9.84375 0q0.046875 -2.34375 -0.296875 -4.328125q-0.328125 -2.0 -1.046875 -3.203125q-0.71875 -1.203125 -1.921875 -1.203125q-1.6875 0 -2.859375 2.125q-1.171875 2.109375 -1.421875 7.0l0.15625 0.28125q-0.046875 0.578125 -0.078125 1.203125q-0.015625 0.625 -0.015625 1.296875q0 3.3125 0.921875 5.375q0.9375 2.0625 2.375 3.0q1.453125 0.9375 2.9375 0.9375q1.0 0 2.078125 -0.3125q1.09375 -0.3125 2.1875 -1.140625q1.109375 -0.84375 2.0625 -2.390625l0.875 0.296875q-0.578125 1.828125 -1.828125 3.5625q-1.25 1.71875 -3.171875 2.828125q-1.921875 1.09375 -4.609375 1.09375q-3.265625 0 -5.765625 -1.390625q-2.484375 -1.390625 -3.90625 -4.21875q-1.40625 -2.84375 -1.40625 -7.203125q0 -4.46875 1.5 -7.4375q1.515625 -2.984375 4.171875 -4.4375q2.671875 -1.46875 6.078125 -1.46875zm23.469849 -8.5q1.203125 0.046875 3.234375 0.09375q2.046875 0.046875 4.0625 0.046875q2.3125 0 4.46875 -0.046875q2.15625 -0.046875 3.078125 -0.046875q6.671875 0 9.984375 2.640625q3.3125 2.640625 3.3125 6.8125q0 1.734375 -0.671875 3.640625q-0.671875 1.890625 -2.28125 3.5q-1.609375 1.59375 -4.40625 2.609375q-2.78125 1.0 -7.0 1.0l-4.890625 0l0 -0.953125l4.40625 0q2.84375 0 4.296875 -1.296875q1.46875 -1.296875 2.015625 -3.40625q0.5625 -2.109375 0.5625 -4.5625q0 -4.5625 -1.34375 -6.8125q-1.34375 -2.265625 -4.609375 -2.265625q-1.875 0 -2.4375 0.828125q-0.546875 0.8125 -0.546875 3.3125l0 23.515625q0 1.875 0.375 2.78125q0.390625 0.90625 1.5 1.203125q1.109375 0.28125 3.265625 0.328125l0 1.0625q-1.484375 -0.046875 -3.84375 -0.09375q-2.34375 -0.046875 -4.9375 -0.046875q-2.0625 0 -4.03125 0.046875q-1.96875 0.046875 -3.5625 0.09375l0 -0.953125q1.546875 -0.109375 2.3125 -0.390625q0.765625 -0.28125 1.03125 -1.140625q0.265625 -0.875 0.265625 -2.609375l0 -23.796875q0 -1.78125 -0.265625 -2.625q-0.265625 -0.84375 -1.0625 -1.140625q-0.78125 -0.3125 -2.28125 -0.375l0 -0.953125zm46.799316 8.5q1.546875 0 2.5 0.65625q0.96875 0.640625 1.421875 1.65625q0.453125 1.0 0.453125 2.09375q0 1.78125 -1.03125 2.90625q-1.03125 1.125 -2.71875 1.125q-1.671875 0 -2.609375 -0.828125q-0.9375 -0.84375 -0.9375 -2.234375q0 -1.34375 0.59375 -2.234375q0.609375 -0.890625 1.515625 -1.515625q-0.671875 -0.1875 -1.34375 0.046875q-0.90625 0.15625 -1.734375 0.75q-0.8125 0.59375 -1.390625 1.484375q-0.5625 0.890625 -0.90625 1.921875q-0.328125 1.03125 -0.328125 2.0l0 12.71875q0 2.296875 1.125 3.109375q1.125 0.8125 3.375 0.8125l0 1.015625q-1.09375 -0.046875 -3.21875 -0.109375q-2.109375 -0.078125 -4.40625 -0.078125q-1.921875 0 -3.890625 0.078125q-1.96875 0.0625 -2.96875 0.109375l0 -1.015625q1.671875 0 2.359375 -0.71875q0.703125 -0.71875 0.703125 -2.734375l0 -15.109375q0 -2.171875 -0.65625 -3.203125q-0.640625 -1.03125 -2.40625 -1.03125l0 -1.0q1.53125 0.140625 2.96875 0.140625q2.015625 0 3.765625 -0.171875q1.75 -0.171875 3.25 -0.5l0 4.46875q0.578125 -1.296875 1.53125 -2.34375q0.953125 -1.0625 2.203125 -1.65625q1.25 -0.609375 2.78125 -0.609375zm17.619019 0q3.515625 0 6.140625 1.296875q2.640625 1.296875 4.125 4.171875q1.5 2.875 1.5 7.625q0 4.765625 -1.5 7.625q-1.484375 2.84375 -4.125 4.140625q-2.625 1.296875 -6.140625 1.296875q-3.40625 0 -6.078125 -1.296875q-2.65625 -1.296875 -4.171875 -4.140625q-1.5 -2.859375 -1.5 -7.625q0 -4.75 1.5 -7.625q1.515625 -2.875 4.171875 -4.171875q2.671875 -1.296875 6.078125 -1.296875zm0 0.953125q-1.921875 0 -3.21875 2.859375q-1.28125 2.859375 -1.28125 9.28125q0 6.4375 1.28125 9.28125q1.296875 2.828125 3.21875 2.828125q1.96875 0 3.234375 -2.828125q1.28125 -2.84375 1.28125 -9.28125q0 -6.421875 -1.28125 -9.28125q-1.265625 -2.859375 -3.234375 -2.859375zm27.213806 -0.953125q1.875 0 3.4375 0.40625q1.5625 0.40625 2.5625 1.03125q1.25 0.765625 1.9375 1.890625q0.703125 1.125 0.703125 2.625q0 1.671875 -1.0625 2.75q-1.046875 1.078125 -2.71875 1.078125q-1.6875 0 -2.703125 -0.953125q-1.0 -0.953125 -1.0 -2.59375q0 -1.53125 0.953125 -2.5625q0.96875 -1.03125 2.21875 -1.375q-0.390625 -0.46875 -1.15625 -0.8125q-0.765625 -0.34375 -1.71875 -0.34375q-1.5 0 -2.625 0.875q-1.125 0.859375 -1.890625 2.40625q-0.765625 1.53125 -1.1875 3.59375q-0.40625 2.0625 -0.40625 4.515625q0 3.6875 0.9375 5.796875q0.9375 2.109375 2.40625 2.984375q1.46875 0.859375 3.046875 0.859375q0.90625 0 1.984375 -0.28125q1.09375 -0.296875 2.21875 -1.15625q1.125 -0.859375 2.078125 -2.453125l0.828125 0.296875q-0.53125 1.765625 -1.734375 3.546875q-1.203125 1.78125 -3.125 2.90625q-1.90625 1.125 -4.703125 1.125q-3.109375 0 -5.640625 -1.359375q-2.515625 -1.375 -4.03125 -4.234375q-1.5 -2.859375 -1.5 -7.359375q0 -4.328125 1.546875 -7.28125q1.5625 -2.953125 4.25 -4.4375q2.6875 -1.484375 6.09375 -1.484375zm23.714294 0q4.234375 0 6.625 2.5q2.40625 2.484375 2.40625 8.15625l-15.796875 0l-0.09375 -0.921875l9.84375 0q0.046875 -2.34375 -0.296875 -4.328125q-0.328125 -2.0 -1.046875 -3.203125q-0.71875 -1.203125 -1.921875 -1.203125q-1.6875 0 -2.859375 2.125q-1.171875 2.109375 -1.421875 7.0l0.15625 0.28125q-0.046875 0.578125 -0.078125 1.203125q-0.015625 0.625 -0.015625 1.296875q0 3.3125 0.921875 5.375q0.9375 2.0625 2.375 3.0q1.453125 0.9375 2.9375 0.9375q1.0 0 2.078125 -0.3125q1.09375 -0.3125 2.1875 -1.140625q1.109375 -0.84375 2.0625 -2.390625l0.875 0.296875q-0.578125 1.828125 -1.828125 3.5625q-1.25 1.71875 -3.171875 2.828125q-1.921875 1.09375 -4.609375 1.09375q-3.265625 0 -5.765625 -1.390625q-2.484375 -1.390625 -3.90625 -4.21875q-1.40625 -2.84375 -1.40625 -7.203125q0 -4.46875 1.5 -7.4375q1.515625 -2.984375 4.171875 -4.4375q2.671875 -1.46875 6.078125 -1.46875zm21.317017 0q2.015625 0 3.53125 0.5q1.515625 0.5 2.1875 0.984375q1.625 1.109375 2.015625 -1.4375l1.0 0q-0.09375 1.34375 -0.140625 3.296875q-0.046875 1.9375 -0.046875 5.15625l-1.015625 0q-0.234375 -1.78125 -0.90625 -3.5q-0.671875 -1.734375 -1.953125 -2.84375q-1.265625 -1.109375 -3.28125 -1.109375q-1.390625 0 -2.359375 0.796875q-0.953125 0.796875 -0.953125 2.28125q0 1.4375 0.859375 2.515625q0.875 1.078125 2.234375 2.0625q1.375 0.984375 2.859375 2.09375q1.578125 1.203125 2.875 2.375q1.296875 1.171875 2.0625 2.5625q0.78125 1.390625 0.78125 3.3125q0 2.171875 -1.25 3.78125q-1.25 1.59375 -3.296875 2.46875q-2.03125 0.859375 -4.53125 0.859375q-1.4375 0 -2.578125 -0.296875q-1.125 -0.28125 -1.9375 -0.71875q-0.625 -0.28125 -1.171875 -0.546875q-0.546875 -0.265625 -1.03125 -0.453125q-0.484375 -0.140625 -0.84375 0.34375q-0.359375 0.46875 -0.546875 1.34375l-1.015625 0q0.09375 -1.546875 0.140625 -3.75q0.0625 -2.203125 0.0625 -5.859375l1.0 0q0.296875 2.59375 1.0625 4.59375q0.765625 1.984375 2.078125 3.109375q1.328125 1.125 3.34375 1.125q0.8125 0 1.578125 -0.328125q0.765625 -0.34375 1.265625 -1.109375q0.515625 -0.765625 0.515625 -1.96875q0 -2.109375 -1.375 -3.5q-1.359375 -1.390625 -3.46875 -3.03125q-1.546875 -1.234375 -2.921875 -2.453125q-1.359375 -1.234375 -2.21875 -2.6875q-0.859375 -1.46875 -0.859375 -3.34375q0 -2.171875 1.140625 -3.65625q1.15625 -1.484375 3.046875 -2.21875q1.90625 -0.75 4.0625 -0.75zm22.176025 0q2.015625 0 3.53125 0.5q1.515625 0.5 2.1875 0.984375q1.625 1.109375 2.015625 -1.4375l1.0 0q-0.09375 1.34375 -0.140625 3.296875q-0.046875 1.9375 -0.046875 5.15625l-1.015625 0q-0.234375 -1.78125 -0.90625 -3.5q-0.671875 -1.734375 -1.953125 -2.84375q-1.265625 -1.109375 -3.28125 -1.109375q-1.390625 0 -2.359375 0.796875q-0.953125 0.796875 -0.953125 2.28125q0 1.4375 0.859375 2.515625q0.875 1.078125 2.234375 2.0625q1.375 0.984375 2.859375 2.09375q1.578125 1.203125 2.875 2.375q1.296875 1.171875 2.0625 2.5625q0.78125 1.390625 0.78125 3.3125q0 2.171875 -1.25 3.78125q-1.25 1.59375 -3.296875 2.46875q-2.03125 0.859375 -4.53125 0.859375q-1.4375 0 -2.578125 -0.296875q-1.125 -0.28125 -1.9375 -0.71875q-0.625 -0.28125 -1.171875 -0.546875q-0.546875 -0.265625 -1.03125 -0.453125q-0.484375 -0.140625 -0.84375 0.34375q-0.359375 0.46875 -0.546875 1.34375l-1.015625 0q0.09375 -1.546875 0.140625 -3.75q0.0625 -2.203125 0.0625 -5.859375l1.0 0q0.296875 2.59375 1.0625 4.59375q0.765625 1.984375 2.078125 3.109375q1.328125 1.125 3.34375 1.125q0.8125 0 1.578125 -0.328125q0.765625 -0.34375 1.265625 -1.109375q0.515625 -0.765625 0.515625 -1.96875q0 -2.109375 -1.375 -3.5q-1.359375 -1.390625 -3.46875 -3.03125q-1.546875 -1.234375 -2.921875 -2.453125q-1.359375 -1.234375 -2.21875 -2.6875q-0.859375 -1.46875 -0.859375 -3.34375q0 -2.171875 1.140625 -3.65625q1.15625 -1.484375 3.046875 -2.21875q1.90625 -0.75 4.0625 -0.75zm18.9104 -11.71875q2.015625 0 3.1875 0.984375q1.1875 0.984375 1.1875 2.71875q0 1.71875 -1.1875 2.703125q-1.171875 0.984375 -3.1875 0.984375q-2.015625 0 -3.1875 -0.984375q-1.171875 -0.984375 -1.171875 -2.703125q0 -1.734375 1.171875 -2.71875q1.171875 -0.984375 3.1875 -0.984375zm3.75 11.859375l0 20.875q0 2.015625 0.6875 2.734375q0.703125 0.71875 2.375 0.71875l0 1.015625q-0.859375 -0.046875 -2.6875 -0.109375q-1.8125 -0.078125 -3.6875 -0.078125q-1.875 0 -3.796875 0.078125q-1.921875 0.0625 -2.875 0.109375l0 -1.015625q1.671875 0 2.359375 -0.71875q0.703125 -0.71875 0.703125 -2.734375l0 -15.109375q0 -2.171875 -0.65625 -3.203125q-0.640625 -1.03125 -2.40625 -1.03125l0 -1.0q1.53125 0.140625 2.96875 0.140625q2.015625 0 3.765625 -0.171875q1.75 -0.171875 3.25 -0.5zm22.994995 -0.140625q2.015625 0 3.28125 0.5q1.265625 0.5 1.984375 1.375q0.78125 0.90625 1.140625 2.34375q0.359375 1.4375 0.359375 3.890625l0 12.90625q0 2.015625 0.6875 2.734375q0.703125 0.71875 2.375 0.71875l0 1.015625q-0.90625 -0.046875 -2.734375 -0.109375q-1.828125 -0.078125 -3.59375 -0.078125q-1.828125 0 -3.578125 0.078125q-1.75 0.0625 -2.671875 0.109375l0 -1.015625q1.453125 0 2.015625 -0.71875q0.578125 -0.71875 0.578125 -2.734375l0 -14.921875q0 -1.203125 -0.234375 -2.09375q-0.234375 -0.890625 -0.859375 -1.390625q-0.625 -0.5 -1.875 -0.5q-1.296875 0 -2.375 0.71875q-1.078125 0.71875 -1.734375 2.0q-0.640625 1.265625 -0.640625 2.84375l0 13.34375q0 2.015625 0.59375 2.734375q0.609375 0.71875 2.0 0.71875l0 1.015625q-0.875 -0.046875 -2.53125 -0.109375q-1.65625 -0.078125 -3.421875 -0.078125q-1.828125 0 -3.75 0.078125q-1.921875 0.0625 -2.875 0.109375l0 -1.015625q1.671875 0 2.359375 -0.71875q0.703125 -0.71875 0.703125 -2.734375l0 -15.109375q0 -2.171875 -0.65625 -3.203125q-0.640625 -1.03125 -2.40625 -1.03125l0 -1.0q1.53125 0.140625 2.96875 0.140625q2.015625 0 3.765625 -0.171875q1.75 -0.171875 3.25 -0.5l0 4.3125q1.203125 -2.4375 3.265625 -3.4375q2.0625 -1.015625 4.609375 -1.015625zm20.589172 34.515625q-2.984375 0 -5.3125 -0.515625q-2.328125 -0.5 -3.65625 -1.53125q-1.3125 -1.03125 -1.3125 -2.515625q0 -1.5 1.34375 -2.671875q1.34375 -1.171875 3.984375 -1.84375l0.4375 0.765625q-0.90625 0.71875 -1.328125 1.5625q-0.40625 0.84375 -0.40625 1.75q0 2.015625 1.84375 3.09375q1.859375 1.078125 5.03125 1.078125q2.15625 0 3.859375 -0.578125q1.703125 -0.5625 2.6875 -1.71875q0.984375 -1.15625 0.984375 -2.828125q0 -1.453125 -1.0625 -2.4375q-1.046875 -0.984375 -4.21875 -0.984375l-2.96875 0q-1.96875 0 -3.4375 -0.421875q-1.46875 -0.4375 -2.28125 -1.375q-0.8125 -0.9375 -0.8125 -2.375q0 -2.015625 1.578125 -3.546875q1.59375 -1.53125 4.703125 -2.875l0.484375 0.375q-0.90625 0.578125 -1.703125 1.234375q-0.796875 0.640625 -0.796875 1.640625q0 1.546875 1.921875 1.546875l5.234375 0q2.640625 0 4.71875 0.625q2.09375 0.625 3.3125 2.046875q1.234375 1.40625 1.234375 3.65625q0 2.359375 -1.515625 4.375q-1.515625 2.015625 -4.640625 3.234375q-3.109375 1.234375 -7.90625 1.234375zm0.46875 -19.25q-2.734375 0 -4.890625 -0.8125q-2.15625 -0.828125 -3.40625 -2.5q-1.25 -1.6875 -1.25 -4.328125q0 -2.640625 1.25 -4.34375q1.25 -1.703125 3.40625 -2.484375q2.15625 -0.796875 4.890625 -0.796875q2.75 0 4.90625 0.796875q2.15625 0.78125 3.40625 2.484375q1.25 1.703125 1.25 4.34375q0 2.640625 -1.25 4.328125q-1.25 1.671875 -3.40625 2.5q-2.15625 0.8125 -4.90625 0.8125zm0 -0.875q1.296875 0 2.015625 -1.453125q0.734375 -1.46875 0.734375 -5.3125q0 -3.84375 -0.734375 -5.296875q-0.71875 -1.46875 -2.015625 -1.46875q-1.234375 0 -1.984375 1.46875q-0.75 1.453125 -0.75 5.296875q0 3.84375 0.75 5.3125q0.75 1.453125 1.984375 1.453125zm7.5 -10.265625l-0.96875 -0.34375q0.71875 -1.859375 2.328125 -3.109375q1.609375 -1.25 3.484375 -1.25q1.53125 0 2.328125 0.84375q0.796875 0.828125 0.796875 2.171875q0 1.453125 -0.78125 2.15625q-0.765625 0.6875 -1.71875 0.6875q-0.8125 0 -1.515625 -0.578125q-0.6875 -0.578125 -0.796875 -1.75q-0.09375 -1.1875 0.828125 -3.046875l0.328125 0.28125q-1.828125 0.671875 -2.734375 1.5625q-0.90625 0.890625 -1.578125 2.375zm19.817566 -16.171875q3.453125 0 6.015625 1.03125q2.578125 1.03125 4.03125 2.984375q1.46875 1.9375 1.46875 4.625q0 2.6875 -1.5625 4.796875q-1.546875 2.109375 -4.296875 3.578125q-2.734375 1.453125 -6.375 2.28125l0 7.0l-0.953125 0l0 -7.4375q2.6875 -1.203125 4.03125 -2.640625q1.34375 -1.4375 1.8125 -3.109375q0.484375 -1.6875 0.484375 -3.5625q0 -4.5625 -1.65625 -6.578125q-1.65625 -2.015625 -4.25 -2.015625q-1.296875 0 -2.421875 0.296875q-1.125 0.28125 -1.75 0.953125q1.296875 0.4375 1.984375 1.28125q0.703125 0.828125 0.703125 2.21875q0 1.484375 -1.0625 2.46875q-1.046875 0.984375 -2.734375 0.984375q-1.53125 0 -2.46875 -0.984375q-0.9375 -0.984375 -0.9375 -2.328125q0 -1.484375 0.796875 -2.46875q0.796875 -0.984375 1.9375 -1.703125q1.15625 -0.671875 2.953125 -1.171875q1.796875 -0.5 4.25 -0.5zm-1.15625 30.8125q1.875 0 2.96875 0.984375q1.109375 0.984375 1.109375 2.703125q0 1.734375 -1.109375 2.71875q-1.09375 0.984375 -2.96875 0.984375q-1.859375 0 -2.96875 -0.984375q-1.109375 -0.984375 -1.109375 -2.71875q0 -1.71875 1.109375 -2.703125q1.109375 -0.984375 2.96875 -0.984375z" fill-rule="nonzero"/><path fill="#000000" d="m36.14173 372.77167l515.4961 0l0 60.661407l-515.4961 0z" fill-rule="evenodd"/><path fill="#ffffff" d="m47.79798 414.62238l0 -22.40625l10.171875 0q3.65625 0 6.4375 1.40625q2.78125 1.390625 4.34375 3.890625q1.578125 2.484375 1.578125 5.90625q0 3.390625 -1.578125 5.90625q-1.5625 2.515625 -4.34375 3.90625q-2.78125 1.390625 -6.4375 1.390625l-10.171875 0zm5.1875 -4.25l4.734375 0q2.234375 0 3.875 -0.84375q1.65625 -0.859375 2.5625 -2.421875q0.921875 -1.578125 0.921875 -3.6875q0 -2.140625 -0.921875 -3.6875q-0.90625 -1.5625 -2.5625 -2.40625q-1.640625 -0.84375 -3.875 -0.84375l-4.734375 0l0 13.890625zm29.432053 4.5q-2.9375 0 -5.171875 -1.140625q-2.21875 -1.15625 -3.4375 -3.15625q-1.203125 -2.0 -1.203125 -4.5625q0 -2.59375 1.1875 -4.59375q1.203125 -2.0 3.28125 -3.125q2.078125 -1.140625 4.703125 -1.140625q2.53125 0 4.5625 1.078125q2.03125 1.0625 3.21875 3.0625q1.1875 2.0 1.1875 4.78125q0 0.296875 -0.03125 0.671875q-0.03125 0.359375 -0.0625 0.671875l-13.984375 0l0 -2.90625l11.359375 0l-1.921875 0.859375q0 -1.34375 -0.546875 -2.328125q-0.546875 -1.0 -1.515625 -1.5625q-0.953125 -0.5625 -2.234375 -0.5625q-1.28125 0 -2.25 0.5625q-0.96875 0.5625 -1.515625 1.578125q-0.546875 1.0 -0.546875 2.375l0 0.765625q0 1.40625 0.625 2.484375q0.625 1.078125 1.75 1.640625q1.140625 0.546875 2.671875 0.546875q1.390625 0 2.421875 -0.40625q1.046875 -0.421875 1.90625 -1.25l2.65625 2.875q-1.1875 1.34375 -2.984375 2.0625q-1.78125 0.71875 -4.125 0.71875zm33.707672 -17.71875q2.046875 0 3.625 0.8125q1.578125 0.8125 2.484375 2.5q0.921875 1.671875 0.921875 4.296875l0 9.859375l-4.984375 0l0 -9.09375q0 -2.078125 -0.875 -3.0625q-0.859375 -1.0 -2.421875 -1.0q-1.09375 0 -1.96875 0.5q-0.859375 0.5 -1.34375 1.5q-0.46875 0.984375 -0.46875 2.515625l0 8.640625l-4.984375 0l0 -9.09375q0 -2.078125 -0.859375 -3.0625q-0.84375 -1.0 -2.40625 -1.0q-1.09375 0 -1.96875 0.5q-0.859375 0.5 -1.34375 1.5q-0.46875 0.984375 -0.46875 2.515625l0 8.640625l-5.0 0l0 -17.21875l4.78125 0l0 4.703125l-0.90625 -1.375q0.90625 -1.75 2.546875 -2.65625q1.65625 -0.921875 3.765625 -0.921875q2.359375 0 4.140625 1.203125q1.78125 1.1875 2.34375 3.65625l-1.75 -0.484375q0.859375 -2.015625 2.765625 -3.1875q1.90625 -1.1875 4.375 -1.1875zm13.37307 23.9375q-1.34375 0 -2.6562576 -0.421875q-1.3125 -0.421875 -2.140625 -1.15625l1.8125 -3.546875q0.578125 0.515625 1.328125 0.796875q0.7500076 0.296875 1.4843826 0.296875q1.0625 0 1.6875 -0.5q0.625 -0.5 1.140625 -1.65625l0.890625 -2.109375l0.390625 -0.546875l6.171875 -14.84375l4.796875 0l-7.78125 18.28125q-0.828125 2.078125 -1.90625 3.25q-1.0625 1.1875 -2.359375 1.671875q-1.296875 0.484375 -2.859375 0.484375zm2.9375 -5.796875l-7.6718826 -17.890625l5.1406326 0l5.953125 14.40625l-3.421875 3.484375zm19.55191 -0.421875q-2.203125 0 -4.234375 -0.515625q-2.03125 -0.53125 -3.21875 -1.328125l1.65625 -3.59375q1.1875 0.734375 2.796875 1.203125q1.625 0.46875 3.1875 0.46875q1.734375 0 2.453125 -0.421875q0.71875 -0.421875 0.71875 -1.15625q0 -0.609375 -0.5625 -0.90625q-0.546875 -0.296875 -1.484375 -0.453125q-0.921875 -0.171875 -2.03125 -0.328125q-1.109375 -0.15625 -2.234375 -0.421875q-1.109375 -0.28125 -2.046875 -0.828125q-0.921875 -0.546875 -1.484375 -1.46875q-0.546875 -0.9375 -0.546875 -2.40625q0 -1.625 0.9375 -2.875q0.9375 -1.25 2.734375 -1.96875q1.796875 -0.71875 4.296875 -0.71875q1.75 0 3.578125 0.390625q1.828125 0.375 3.03125 1.109375l-1.65625 3.546875q-1.25 -0.734375 -2.515625 -1.0q-1.265625 -0.28125 -2.4375 -0.28125q-1.671875 0 -2.4375 0.453125q-0.765625 0.453125 -0.765625 1.15625q0 0.640625 0.546875 0.96875q0.5625 0.3125 1.484375 0.5q0.9375 0.1875 2.046875 0.34375q1.109375 0.140625 2.21875 0.4375q1.125 0.28125 2.03125 0.8125q0.921875 0.515625 1.484375 1.4375q0.578125 0.90625 0.578125 2.375q0 1.609375 -0.96875 2.84375q-0.953125 1.21875 -2.765625 1.921875q-1.796875 0.703125 -4.390625 0.703125zm18.242035 0q-3.046875 0 -4.75 -1.546875q-1.6875 -1.546875 -1.6875 -4.625l0 -15.109375l5.0 0l0 15.046875q0 1.09375 0.578125 1.6875q0.578125 0.578125 1.5625 0.578125q1.1875 0 2.015625 -0.640625l1.34375 3.53125q-0.765625 0.546875 -1.84375 0.8125q-1.0625 0.265625 -2.21875 0.265625zm-9.09375 -13.234375l0 -3.84375l11.9375 0l0 3.84375l-11.9375 0zm15.966904 12.984375l0 -17.21875l5.0 0l0 17.21875l-5.0 0zm2.5 -19.609375q-1.375 0 -2.234375 -0.796875q-0.859375 -0.8125 -0.859375 -2.0q0 -1.171875 0.859375 -1.96875q0.859375 -0.8125 2.234375 -0.8125q1.375 0 2.234375 0.75q0.875 0.75 0.875 1.9375q0 1.25 -0.84375 2.078125q-0.84375 0.8125 -2.265625 0.8125zm7.741394 19.609375l0 -17.59375q0 -2.921875 1.734375 -4.65625q1.734375 -1.75 4.921875 -1.75q1.09375 0 2.09375 0.234375q1.015625 0.21875 1.71875 0.6875l-1.3125 3.625q-0.421875 -0.296875 -0.9375 -0.453125q-0.5 -0.15625 -1.078125 -0.15625q-1.09375 0 -1.6875 0.625q-0.578125 0.625 -0.578125 1.875l0 1.59375l0.125 2.140625l0 13.828125l-5.0 0zm-2.65625 -12.984375l0 -3.84375l11.9375 0l0 3.84375l-11.9375 0zm16.9384 19.453125q-1.34375 0 -2.65625 -0.421875q-1.3125 -0.421875 -2.140625 -1.15625l1.8125 -3.546875q0.578125 0.515625 1.328125 0.796875q0.75 0.296875 1.484375 0.296875q1.0625 0 1.6875 -0.5q0.625 -0.5 1.140625 -1.65625l0.890625 -2.109375l0.390625 -0.546875l6.171875 -14.84375l4.796875 0l-7.78125 18.28125q-0.828125 2.078125 -1.90625 3.25q-1.0625 1.1875 -2.359375 1.671875q-1.296875 0.484375 -2.859375 0.484375zm2.9375 -5.796875l-7.671875 -17.890625l5.140625 0l5.953125 14.40625l-3.421875 3.484375zm14.011032 -0.671875l0 -17.21875l5.0 0l0 17.21875l-5.0 0zm2.5 -19.609375q-1.375 0 -2.234375 -0.796875q-0.859375 -0.8125 -0.859375 -2.0q0 -1.171875 0.859375 -1.96875q0.859375 -0.8125 2.234375 -0.8125q1.375 0 2.234375 0.75q0.875 0.75 0.875 1.9375q0 1.25 -0.84375 2.078125q-0.84375 0.8125 -2.265625 0.8125zm17.600769 2.140625q2.046875 0 3.65625 0.8125q1.625 0.8125 2.546875 2.5q0.9375 1.671875 0.9375 4.296875l0 9.859375l-5.0 0l0 -9.09375q0 -2.078125 -0.90625 -3.0625q-0.90625 -1.0 -2.578125 -1.0q-1.1875 0 -2.125 0.5q-0.9375 0.5 -1.46875 1.53125q-0.53125 1.015625 -0.53125 2.609375l0 8.515625l-5.0 0l0 -17.21875l4.78125 0l0 4.765625l-0.90625 -1.4375q0.9375 -1.71875 2.65625 -2.640625q1.734375 -0.9375 3.9375 -0.9375zm19.880676 23.9375q-2.4375 0 -4.703125 -0.59375q-2.25 -0.59375 -3.75 -1.78125l1.984375 -3.578125q1.09375 0.890625 2.765625 1.421875q1.6875 0.53125 3.3125 0.53125q2.65625 0 3.859375 -1.1875q1.203125 -1.1875 1.203125 -3.515625l0 -2.59375l0.3125 -4.328125l-0.0625 -4.34375l0 -3.71875l4.734375 0l0 14.34375q0 4.796875 -2.5 7.0625q-2.484375 2.28125 -7.15625 2.28125zm-0.78125 -7.296875q-2.390625 0 -4.328125 -1.03125q-1.9375 -1.046875 -3.109375 -2.921875q-1.15625 -1.875 -1.15625 -4.375q0 -2.53125 1.15625 -4.390625q1.171875 -1.875 3.109375 -2.890625q1.9375 -1.03125 4.328125 -1.03125q2.1875 0 3.84375 0.875q1.671875 0.875 2.59375 2.71875q0.921875 1.84375 0.921875 4.71875q0 2.859375 -0.921875 4.703125q-0.921875 1.828125 -2.59375 2.734375q-1.65625 0.890625 -3.84375 0.890625zm1.0 -4.09375q1.3125 0 2.328125 -0.53125q1.03125 -0.53125 1.609375 -1.484375q0.578125 -0.96875 0.578125 -2.21875q0 -1.28125 -0.578125 -2.21875q-0.578125 -0.9375 -1.609375 -1.46875q-1.015625 -0.53125 -2.328125 -0.53125q-1.3125 0 -2.34375 0.53125q-1.015625 0.53125 -1.609375 1.46875q-0.59375 0.9375 -0.59375 2.21875q0 1.25 0.59375 2.21875q0.59375 0.953125 1.609375 1.484375q1.03125 0.53125 2.34375 0.53125zm23.487305 4.921875l0 -22.40625l4.28125 0l13.21875 16.140625l-2.078125 0l0 -16.140625l5.125 0l0 22.40625l-4.265625 0l-13.234375 -16.125l2.078125 0l0 16.125l-5.125 0zm25.856018 0l0 -22.40625l5.1875 0l0 18.1875l11.234375 0l0 4.21875l-16.421875 0zm19.328033 0l0 -22.40625l9.703125 0q3.0 0 5.171875 0.984375q2.1875 0.96875 3.359375 2.796875q1.1875 1.828125 1.1875 4.359375q0 2.484375 -1.1875 4.3125q-1.171875 1.828125 -3.359375 2.8125q-2.171875 0.96875 -5.171875 0.96875l-6.828125 0l2.3125 -2.34375l0 8.515625l-5.1875 0zm5.1875 -7.9375l-2.3125 -2.46875l6.53125 0q2.40625 0 3.578125 -1.015625q1.1875 -1.03125 1.1875 -2.84375q0 -1.859375 -1.1875 -2.875q-1.171875 -1.03125 -3.578125 -1.03125l-6.53125 0l2.3125 -2.46875l0 12.703125z" fill-rule="nonzero"/></g></svg>